<?xml version="1.0" encoding="utf-8"?><svg xmlns="http://www.w3.org/2000/svg" xmlns:xlink="http://www.w3.org/1999/xlink"><symbol viewBox="0 0 27 27" id="ico-!" xmlns="http://www.w3.org/2000/svg"><circle cx="14" cy="14" r="13.5" stroke="#D61A0B"/><path d="M14.336 16.008h-.992l-.256-7.68h1.504l-.256 7.68zm.112 2.896a.83.83 0 0 1-.608.256.884.884 0 0 1-.624-.256.884.884 0 0 1-.256-.624.85.85 0 0 1 .256-.624.85.85 0 0 1 .624-.256.85.85 0 0 1 .624.256.85.85 0 0 1 .256.624c0 .235-.09.443-.272.624z"/></symbol></svg>