<svg width="28" height="28" viewBox="0 0 28 28" fill="none" xmlns="http://www.w3.org/2000/svg">
<circle cx="14" cy="14" r="13.5" stroke="#D61A0B"/>
<path d="M14.336 16.008H13.344L13.088 8.328H14.592L14.336 16.008ZM14.448 18.904C14.2773 19.0747 14.0747 19.16 13.84 19.16C13.6053 19.16 13.3973 19.0747 13.216 18.904C13.0453 18.7227 12.96 18.5147 12.96 18.28C12.96 18.0347 13.0453 17.8267 13.216 17.656C13.3867 17.4853 13.5947 17.4 13.84 17.4C14.0853 17.4 14.2933 17.4853 14.464 17.656C14.6347 17.8267 14.72 18.0347 14.72 18.28C14.72 18.5147 14.6293 18.7227 14.448 18.904Z" fill="#D61A0B"/>
</svg>
